# xmcd
#
# Track frame offsets:
#	150
#	38463
#	69799
#	88324
#	110361
#	136396
#	169276
#	202133
#
# Disc length: 2915
#
# Revision: 1
# Processed by: cddbd v1.5.1PL0 Copyright (c) Steve Scherf et al.
# Submitted via: CDex 1.50
# Normalized: r0:DSETVAR1,TDELIM( - )
#
DISCID=6b0b6108
DTITLE=Various Artist - Jazz For A Day At The Beach Disc 2
DYEAR=2003
DGENRE=Jazz
TTITLE0=Little Sunflower - Johnny Lytle
TTITLE1=The Girl From Ipanema - Houston Person and Teddy Edwards
TTITLE2=Batuque - Joao Donato
TTITLE3=Cinnamon Flower - Dom Um Romao
TTITLE4=In The Meantime - Kenny Barron
TTITLE5=The Summer Knows - Phil Woods
TTITLE6=Prism - Buster Williams
TTITLE7=Before The Evening Sun Sets - Charles Brown
EXTD=YEAR: 2003
EXTT0=
EXTT1=
EXTT2=
EXTT3=
EXTT4=
EXTT5=
EXTT6=
EXTT7=
PLAYORDER=
